<svg xmlns="http://www.w3.org/2000/svg" width="64" height="64" id="line"><path style="text-indent:0;text-align:start;line-height:normal;text-transform:none;block-progression:tb;marker:none;-inkscape-font-specification:Sans" d="M36.781 1011.201c-1.197 0-2.12.78-2.843 1.781-.724 1.001-1.294 2.277-1.844 3.532-.55 1.254-1.097 2.494-1.656 3.375-.56.88-1.088 1.312-1.657 1.312-.695 0-1.089-.207-1.437-.594-.349-.386-.62-.978-.875-1.593-.255-.616-.487-1.264-.875-1.813-.389-.548-1.009-1-1.813-1-.455 0-.854.208-1.156.5-.302.293-.522.677-.719 1.094-.392.833-.686 1.866-1.062 2.875-.377 1.01-.84 1.995-1.469 2.688-.629.692-1.406 1.125-2.594 1.125h-14a.5.5 0 1 0 0 1h14c1.449 0 2.567-.614 3.344-1.47.777-.855 1.263-1.945 1.656-3 .394-1.053.695-2.097 1.031-2.812.169-.357.337-.622.5-.781.164-.159.282-.219.47-.219.479 0 .724.205 1 .594.275.389.518.99.78 1.625.263.634.535 1.293 1.032 1.844.496.55 1.238.937 2.187.937 1.076 0 1.868-.787 2.5-1.781.633-.995 1.173-2.254 1.719-3.5s1.118-2.47 1.75-3.344c.632-.874 1.257-1.375 2.031-1.375.353 0 .663.133 1 .438.338.304.672.782 1 1.375.656 1.186 1.28 2.835 1.938 4.5.658 1.664 1.372 3.344 2.312 4.656.94 1.312 2.16 2.281 3.75 2.281H61.22a.5.5 0 1 0 0-1H46.78c-1.194 0-2.096-.67-2.937-1.844-.841-1.172-1.567-2.789-2.219-4.437-.652-1.648-1.25-3.327-1.969-4.625-.359-.65-.722-1.205-1.187-1.625-.466-.42-1.055-.719-1.688-.719z" color="#000" enable-background="accumulate" font-family="Sans" font-weight="400" overflow="visible" transform="translate(0 -988.362)"></path></svg>